<svg width="74" height="83" viewBox="0 0 74 83" fill="none" xmlns="http://www.w3.org/2000/svg">
<path d="M9.09671 60.706L19.2782 49.325C4.47036 34.1492 12.9147 2.52513 40.9293 0.683714C13.6842 -5.29774 -15.1173 29.0694 9.09671 60.706Z" fill="#173F84"/>
<path d="M40.9293 0.683714C12.9147 2.52513 4.47036 34.1492 19.2782 49.325L27.7781 40.325C17.7739 26.5106 18.8021 9.17468 40.9293 0.683714Z" fill="#014DAE"/>
<path d="M28.5126 42.2275C31.2373 44.9987 33.7108 47.1195 37.496 48.6504C32.9689 52.1983 29.8421 54.6229 27.3046 56.7979L27.2714 56.8262C26.8532 57.1846 26.6076 57.6334 26.5654 58.1309C26.5239 58.62 26.6833 59.0995 26.9658 59.5244C27.5252 60.3658 28.6148 61.0791 30.0078 61.4658C32.761 62.2302 36.8386 61.7668 41.1171 58.333C47.9728 63.173 51.8036 66.1138 53.7665 68.1289C54.7639 69.1528 55.2269 69.8873 55.3896 70.4619C55.5412 70.9976 55.4459 71.4459 55.1591 71.9639C54.8588 72.5063 54.529 72.8377 54.123 72.9922C53.7138 73.1477 53.1327 73.1591 52.2558 72.8604C50.4778 72.2546 47.7494 70.4656 43.4189 66.8232L42.7636 67.5781C42.7672 67.5814 42.7707 67.5847 42.7744 67.5879V67.5889C42.7809 67.5943 42.7874 67.6 42.7939 67.6055C45.5602 70.0809 47.757 71.9486 48.9716 73.4912C49.5797 74.2635 49.8828 74.8848 49.9296 75.4004C49.9725 75.8735 49.8055 76.3362 49.2587 76.8369L49.2148 76.877L49.1816 76.9268C48.8264 77.4537 48.4488 77.676 48.0341 77.7295C47.5883 77.7869 47.0182 77.6601 46.2773 77.3125C44.7861 76.6128 42.8833 75.159 40.3954 73.3047L39.7411 74.0576C40.6478 74.9731 41.4179 75.7754 42.0234 76.4932C42.632 77.2147 43.0518 77.8249 43.2802 78.3535C43.5046 78.873 43.5283 79.2755 43.4052 79.6221C43.2779 79.9804 42.9614 80.3693 42.3222 80.7881L42.3134 80.7939L42.3056 80.7998C41.2936 81.5259 40.6377 81.603 40.123 81.3867C39.5816 81.1592 39.0368 80.5512 38.4072 79.457C38.9325 78.3262 38.6416 77.1118 37.9599 76.167C37.3025 75.256 36.2497 74.5384 35.0673 74.2812C34.9712 73.2545 34.6727 72.2497 34.0458 71.4346C33.3795 70.5684 32.3797 69.9643 30.9911 69.7529C30.1648 67.0991 26.8363 65.6307 24.2773 67.0078C23.4209 65.5764 22.3503 64.757 21.0341 64.7412C19.727 64.7257 18.3545 65.5136 16.9374 66.8613C14.5295 65.3038 12.8062 63.9477 10.7714 61.708L28.5126 42.2275Z" fill="#014DAE" stroke="#014DAE"/>
<path d="M20.0621 66.9181C20.1625 66.8679 20.3377 66.846 20.6021 66.9151C20.86 66.9827 21.1503 67.1243 21.4263 67.3175C21.7017 67.5103 21.9424 67.7398 22.1089 67.964C22.2834 68.1988 22.3384 68.3753 22.3384 68.4708C22.3384 68.5075 22.323 68.6056 22.2593 68.7765C22.199 68.9386 22.1069 69.1346 21.9859 69.3546C21.7441 69.7941 21.4028 70.301 21.0132 70.7804C20.6226 71.2612 20.196 71.6988 19.7906 72.0118C19.3667 72.339 19.0413 72.4708 18.8384 72.4708C18.485 72.4708 17.9823 72.2078 17.5328 71.7462C17.3186 71.5263 17.1392 71.2836 17.0162 71.0499C16.8905 70.8113 16.8385 70.6118 16.8384 70.4708C16.8384 70.4411 16.8501 70.363 16.9078 70.2276C16.963 70.0981 17.0488 69.9435 17.1636 69.7677C17.3934 69.4159 17.7171 69.016 18.0806 68.6222C18.4429 68.2297 18.8356 67.8529 19.1949 67.546C19.5619 67.2326 19.8681 67.0151 20.0621 66.9181Z" fill="#FD851E" stroke="#FD851E"/>
<path d="M30.8082 79.935C30.8496 78.9359 33.4504 76.5412 34.4703 76.0829C35.4902 75.6246 37.4265 77.2058 37.3852 78.2049C37.344 79.2041 34.7017 82.598 33.203 82.5361C32.0993 82.4905 30.7669 80.9342 30.8082 79.935Z" fill="#FF7600"/>
<path d="M24.8384 78.0699C24.8386 77.0699 29.3383 72.4705 30.3384 71.9705C31.3386 71.4705 33.3384 72.9705 33.3384 73.9705C33.3384 74.9705 28.8384 80.5699 27.3384 80.5699C26.2339 80.5699 24.8383 79.0699 24.8384 78.0699Z" fill="#FF7600"/>
<path d="M20.8384 74.1692C20.8386 73.1692 25.3383 68.5698 26.3384 68.0698C27.3386 67.5698 29.3384 69.0698 29.3384 70.0698C29.3384 71.0698 24.8384 76.6692 23.3384 76.6692C22.2339 76.6692 20.8383 75.1692 20.8384 74.1692Z" fill="#FD851E"/>
<path d="M57.3384 53.4705C66.9065 46.5936 69.639 39.9951 71.3384 25.4705C67.5422 38.0825 64.6062 43.3248 53 48.5L57.3707 53.5135L57.3384 53.4705Z" fill="#FD851E"/>
<path d="M63.3384 61.4705C72.8212 50.7217 74.9912 38.5914 71.3384 25.4705C69.639 39.9951 66.9065 46.5936 57.3384 53.4705L57.3707 53.5135L63.3384 61.4705Z" fill="#FF7600"/>
<path d="M62 63L56 54.5L45.3384 58.9705L56.3385 67.4705C58.1818 66.2524 60.3068 64.4781 62 63Z" fill="#FF7600"/>
<path d="M41.3384 55.9705L45.3384 58.9705L56 54.5L51.5 49C48.0591 49.3352 43.5935 49.3466 40 49C38.5224 50.1109 37.9766 50.6064 36.711 51.5435C31.612 55.3191 28.4379 57.6694 28.8385 58.4705C31.3384 61.9705 35.2398 60.2025 41.3384 55.9705Z" fill="#FD851E"/>
<path d="M47.8385 27.6797L52.3343 30.3989C53.1576 30.8972 54.1651 30.1605 53.9485 29.2289L52.7568 24.1155L56.7326 20.6705C57.4585 20.0422 57.0685 18.8505 56.1151 18.7747L50.8826 18.3305L48.8351 13.4989C48.4668 12.6214 47.2101 12.6214 46.8418 13.4989L44.7943 18.3197L39.5618 18.7639C38.6085 18.8397 38.2185 20.0314 38.9443 20.6597L42.9201 24.1047L41.7285 29.218C41.5118 30.1497 42.5193 30.8864 43.3426 30.388L47.8385 27.6797Z" fill="#014DAE"/>
</svg>
