<svg width="109" height="112" viewBox="0 0 109 112" fill="none" xmlns="http://www.w3.org/2000/svg">
<rect x="0.5" y="0.5" width="108" height="111" rx="27.5" fill="white" stroke="white"/>
<path d="M27.0967 75.706L37.2782 64.325C22.4704 49.1492 30.9147 17.5251 58.9293 15.6837C31.6842 9.70226 2.88271 44.0694 27.0967 75.706Z" fill="#173F84"/>
<path d="M58.9293 15.6837C30.9147 17.5251 22.4704 49.1492 37.2782 64.325L45.7781 55.325C35.7739 41.5106 36.8021 24.1747 58.9293 15.6837Z" fill="#014DAE"/>
<path d="M46.5126 57.2275C49.2373 59.9987 51.7108 62.1195 55.496 63.6504C50.9689 67.1983 47.8421 69.6229 45.3046 71.7979L45.2714 71.8262C44.8532 72.1846 44.6076 72.6334 44.5654 73.1309C44.5239 73.62 44.6833 74.0995 44.9658 74.5244C45.5252 75.3658 46.6148 76.0791 48.0078 76.4658C50.761 77.2302 54.8386 76.7668 59.1171 73.333C65.9728 78.173 69.8036 81.1138 71.7665 83.1289C72.7639 84.1528 73.2269 84.8873 73.3896 85.4619C73.5412 85.9976 73.4459 86.4459 73.1591 86.9639C72.8588 87.5063 72.529 87.8377 72.123 87.9922C71.7138 88.1477 71.1327 88.1591 70.2558 87.8604C68.4778 87.2546 65.7494 85.4656 61.4189 81.8232L60.7636 82.5781C60.7672 82.5814 60.7707 82.5847 60.7744 82.5879V82.5889C60.7809 82.5943 60.7874 82.6 60.7939 82.6055C63.5602 85.0809 65.757 86.9486 66.9716 88.4912C67.5797 89.2635 67.8828 89.8848 67.9296 90.4004C67.9725 90.8735 67.8055 91.3362 67.2587 91.8369L67.2148 91.877L67.1816 91.9268C66.8264 92.4537 66.4488 92.676 66.0341 92.7295C65.5883 92.7869 65.0182 92.6601 64.2773 92.3125C62.7861 91.6128 60.8833 90.159 58.3954 88.3047L57.7411 89.0576C58.6478 89.9731 59.4179 90.7754 60.0234 91.4932C60.632 92.2147 61.0518 92.8249 61.2802 93.3535C61.5046 93.873 61.5283 94.2755 61.4052 94.6221C61.2779 94.9804 60.9614 95.3693 60.3222 95.7881L60.3134 95.7939L60.3056 95.7998C59.2936 96.5259 58.6377 96.603 58.123 96.3867C57.5816 96.1592 57.0368 95.5512 56.4072 94.457C56.9325 93.3262 56.6416 92.1118 55.9599 91.167C55.3025 90.256 54.2497 89.5384 53.0673 89.2812C52.9712 88.2545 52.6727 87.2497 52.0458 86.4346C51.3795 85.5684 50.3797 84.9643 48.9911 84.7529C48.1648 82.0991 44.8363 80.6307 42.2773 82.0078C41.4209 80.5764 40.3503 79.757 39.0341 79.7412C37.727 79.7257 36.3545 80.5136 34.9374 81.8613C32.5295 80.3038 30.8062 78.9477 28.7714 76.708L46.5126 57.2275Z" fill="#014DAE" stroke="#014DAE"/>
<path d="M38.0621 81.9181C38.1625 81.8679 38.3377 81.846 38.6021 81.9151C38.86 81.9827 39.1503 82.1243 39.4263 82.3175C39.7017 82.5103 39.9424 82.7398 40.1089 82.964C40.2834 83.1988 40.3384 83.3753 40.3384 83.4708C40.3384 83.5075 40.323 83.6056 40.2593 83.7765C40.199 83.9386 40.1069 84.1346 39.9859 84.3546C39.7441 84.7941 39.4028 85.301 39.0132 85.7804C38.6226 86.2612 38.196 86.6988 37.7906 87.0118C37.3667 87.339 37.0413 87.4708 36.8384 87.4708C36.485 87.4708 35.9823 87.2078 35.5328 86.7462C35.3186 86.5263 35.1392 86.2836 35.0162 86.0499C34.8905 85.8113 34.8385 85.6118 34.8384 85.4708C34.8384 85.4411 34.8501 85.363 34.9078 85.2276C34.963 85.0981 35.0488 84.9435 35.1636 84.7677C35.3934 84.4159 35.7171 84.016 36.0806 83.6222C36.4429 83.2297 36.8356 82.8529 37.1949 82.546C37.5619 82.2326 37.8681 82.0151 38.0621 81.9181Z" fill="#FD851E" stroke="#FD851E"/>
<path d="M48.8082 94.935C48.8496 93.9359 51.4504 91.5412 52.4703 91.0829C53.4902 90.6246 55.4265 92.2058 55.3852 93.2049C55.344 94.2041 52.7017 97.598 51.203 97.5361C50.0993 97.4905 48.7669 95.9342 48.8082 94.935Z" fill="#FF7600"/>
<path d="M42.8384 93.0699C42.8386 92.0699 47.3383 87.4705 48.3384 86.9705C49.3386 86.4705 51.3384 87.9705 51.3384 88.9705C51.3384 89.9705 46.8384 95.5699 45.3384 95.5699C44.2339 95.5699 42.8383 94.0699 42.8384 93.0699Z" fill="#FF7600"/>
<path d="M38.8384 89.1692C38.8386 88.1692 43.3383 83.5698 44.3384 83.0698C45.3386 82.5698 47.3384 84.0698 47.3384 85.0698C47.3384 86.0698 42.8384 91.6692 41.3384 91.6692C40.2339 91.6692 38.8383 90.1692 38.8384 89.1692Z" fill="#FD851E"/>
<path d="M75.3384 68.4705C84.9065 61.5936 87.639 54.9951 89.3384 40.4705C85.5422 53.0825 82.6062 58.3248 71 63.5L75.3707 68.5135L75.3384 68.4705Z" fill="#FD851E"/>
<path d="M81.3384 76.4705C90.8212 65.7217 92.9912 53.5914 89.3384 40.4705C87.639 54.9951 84.9065 61.5936 75.3384 68.4705L75.3707 68.5135L81.3384 76.4705Z" fill="#FF7600"/>
<path d="M80 78L74 69.5L63.3384 73.9705L74.3385 82.4705C76.1818 81.2524 78.3068 79.4781 80 78Z" fill="#FF7600"/>
<path d="M59.3384 70.9705L63.3384 73.9705L74 69.5L69.5 64C66.0591 64.3352 61.5935 64.3466 58 64C56.5224 65.1109 55.9766 65.6064 54.711 66.5435C49.612 70.3191 46.4379 72.6694 46.8385 73.4705C49.3384 76.9705 53.2398 75.2025 59.3384 70.9705Z" fill="#FD851E"/>
<path d="M65.8385 42.6797L70.3343 45.3989C71.1576 45.8972 72.1651 45.1605 71.9485 44.2289L70.7568 39.1155L74.7326 35.6705C75.4585 35.0422 75.0685 33.8505 74.1151 33.7747L68.8826 33.3305L66.8351 28.4989C66.4668 27.6214 65.2101 27.6214 64.8418 28.4989L62.7943 33.3197L57.5618 33.7639C56.6085 33.8397 56.2185 35.0314 56.9443 35.6597L60.9201 39.1047L59.7285 44.218C59.5118 45.1497 60.5193 45.8864 61.3426 45.388L65.8385 42.6797Z" fill="#014DAE"/>
</svg>
