<svg width="275" height="210" viewBox="0 0 275 210" fill="none" xmlns="http://www.w3.org/2000/svg">
<path d="M16.657 10.7904L13.7419 0L10.8268 10.7904L0 13.6957L10.8268 16.6009L13.7419 27.3913L16.657 16.6009L27.4839 13.6957L16.657 10.7904Z" fill="#173F84" fill-opacity="0.2"/>
<path d="M53.3022 10.7904L50.3871 0L47.472 10.7904L36.6452 13.6957L47.472 16.6009L50.3871 27.3913L53.3022 16.6009L64.129 13.6957L53.3022 10.7904Z" fill="#173F84" fill-opacity="0.2"/>
<path d="M87.0323 0L89.9474 10.7904L100.774 13.6957L89.9474 16.6009L87.0323 27.3913L84.1172 16.6009L73.2903 13.6957L84.1172 10.7904L87.0323 0Z" fill="#173F84" fill-opacity="0.2"/>
<path d="M126.593 10.7904L123.677 0L120.762 10.7904L109.935 13.6957L120.762 16.6009L123.677 27.3913L126.593 16.6009L137.419 13.6957L126.593 10.7904Z" fill="#173F84" fill-opacity="0.2"/>
<path d="M160.323 0L163.238 10.7904L174.065 13.6957L163.238 16.6009L160.323 27.3913L157.407 16.6009L146.581 13.6957L157.407 10.7904L160.323 0Z" fill="#173F84" fill-opacity="0.2"/>
<path d="M199.883 10.7904L196.968 0L194.053 10.7904L183.226 13.6957L194.053 16.6009L196.968 27.3913L199.883 16.6009L210.71 13.6957L199.883 10.7904Z" fill="#173F84" fill-opacity="0.2"/>
<path d="M233.613 0L236.528 10.7904L247.355 13.6957L236.528 16.6009L233.613 27.3913L230.698 16.6009L219.871 13.6957L230.698 10.7904L233.613 0Z" fill="#173F84" fill-opacity="0.2"/>
<path d="M273.173 10.7904L270.258 0L267.343 10.7904L256.516 13.6957L267.343 16.6009L270.258 27.3913L273.173 16.6009L284 13.6957L273.173 10.7904Z" fill="#173F84" fill-opacity="0.2"/>
<path d="M13.7419 36.5217L16.657 47.3121L27.4839 50.2174L16.657 53.1227L13.7419 63.913L10.8268 53.1227L0 50.2174L10.8268 47.3121L13.7419 36.5217Z" fill="#173F84" fill-opacity="0.2"/>
<path d="M53.3022 47.3121L50.3871 36.5217L47.472 47.3121L36.6452 50.2174L47.472 53.1227L50.3871 63.913L53.3022 53.1227L64.129 50.2174L53.3022 47.3121Z" fill="#173F84" fill-opacity="0.2"/>
<path d="M87.0323 36.5217L89.9474 47.3121L100.774 50.2174L89.9474 53.1227L87.0323 63.913L84.1172 53.1227L73.2903 50.2174L84.1172 47.3121L87.0323 36.5217Z" fill="#173F84" fill-opacity="0.2"/>
<path d="M126.593 47.3121L123.677 36.5217L120.762 47.3121L109.935 50.2174L120.762 53.1227L123.677 63.913L126.593 53.1227L137.419 50.2174L126.593 47.3121Z" fill="#173F84" fill-opacity="0.2"/>
<path d="M160.323 36.5217L163.238 47.3121L174.065 50.2174L163.238 53.1227L160.323 63.913L157.407 53.1227L146.581 50.2174L157.407 47.3121L160.323 36.5217Z" fill="#173F84" fill-opacity="0.2"/>
<path d="M199.883 47.3121L196.968 36.5217L194.053 47.3121L183.226 50.2174L194.053 53.1227L196.968 63.913L199.883 53.1227L210.71 50.2174L199.883 47.3121Z" fill="#173F84" fill-opacity="0.2"/>
<path d="M233.613 36.5217L236.528 47.3121L247.355 50.2174L236.528 53.1227L233.613 63.913L230.698 53.1227L219.871 50.2174L230.698 47.3121L233.613 36.5217Z" fill="#173F84" fill-opacity="0.2"/>
<path d="M273.173 47.3121L270.258 36.5217L267.343 47.3121L256.516 50.2174L267.343 53.1227L270.258 63.913L273.173 53.1227L284 50.2174L273.173 47.3121Z" fill="#173F84" fill-opacity="0.2"/>
<path d="M13.7419 73.0435L16.657 83.8338L27.4839 86.7391L16.657 89.6444L13.7419 100.435L10.8268 89.6444L0 86.7391L10.8268 83.8338L13.7419 73.0435Z" fill="#173F84" fill-opacity="0.2"/>
<path d="M53.3022 83.8338L50.3871 73.0435L47.472 83.8338L36.6452 86.7391L47.472 89.6444L50.3871 100.435L53.3022 89.6444L64.129 86.7391L53.3022 83.8338Z" fill="#173F84" fill-opacity="0.2"/>
<path d="M87.0323 73.0435L89.9474 83.8338L100.774 86.7391L89.9474 89.6444L87.0323 100.435L84.1172 89.6444L73.2903 86.7391L84.1172 83.8338L87.0323 73.0435Z" fill="#173F84" fill-opacity="0.2"/>
<path d="M126.593 83.8338L123.677 73.0435L120.762 83.8338L109.935 86.7391L120.762 89.6444L123.677 100.435L126.593 89.6444L137.419 86.7391L126.593 83.8338Z" fill="#173F84" fill-opacity="0.2"/>
<path d="M160.323 73.0435L163.238 83.8338L174.065 86.7391L163.238 89.6444L160.323 100.435L157.407 89.6444L146.581 86.7391L157.407 83.8338L160.323 73.0435Z" fill="#173F84" fill-opacity="0.2"/>
<path d="M199.883 83.8338L196.968 73.0435L194.053 83.8338L183.226 86.7391L194.053 89.6444L196.968 100.435L199.883 89.6444L210.71 86.7391L199.883 83.8338Z" fill="#173F84" fill-opacity="0.2"/>
<path d="M233.613 73.0435L236.528 83.8338L247.355 86.7391L236.528 89.6444L233.613 100.435L230.698 89.6444L219.871 86.7391L230.698 83.8338L233.613 73.0435Z" fill="#173F84" fill-opacity="0.2"/>
<path d="M273.173 83.8338L270.258 73.0435L267.343 83.8338L256.516 86.7391L267.343 89.6444L270.258 100.435L273.173 89.6444L284 86.7391L273.173 83.8338Z" fill="#173F84" fill-opacity="0.2"/>
<path d="M13.7419 109.565L16.657 120.356L27.4839 123.261L16.657 126.166L13.7419 136.957L10.8268 126.166L0 123.261L10.8268 120.356L13.7419 109.565Z" fill="#173F84" fill-opacity="0.2"/>
<path d="M53.3022 120.356L50.3871 109.565L47.472 120.356L36.6452 123.261L47.472 126.166L50.3871 136.957L53.3022 126.166L64.129 123.261L53.3022 120.356Z" fill="#173F84" fill-opacity="0.2"/>
<path d="M87.0323 109.565L89.9474 120.356L100.774 123.261L89.9474 126.166L87.0323 136.957L84.1172 126.166L73.2903 123.261L84.1172 120.356L87.0323 109.565Z" fill="#173F84" fill-opacity="0.2"/>
<path d="M126.593 120.356L123.677 109.565L120.762 120.356L109.935 123.261L120.762 126.166L123.677 136.957L126.593 126.166L137.419 123.261L126.593 120.356Z" fill="#173F84" fill-opacity="0.2"/>
<path d="M160.323 109.565L163.238 120.356L174.065 123.261L163.238 126.166L160.323 136.957L157.407 126.166L146.581 123.261L157.407 120.356L160.323 109.565Z" fill="#173F84" fill-opacity="0.2"/>
<path d="M199.883 120.356L196.968 109.565L194.053 120.356L183.226 123.261L194.053 126.166L196.968 136.957L199.883 126.166L210.71 123.261L199.883 120.356Z" fill="#173F84" fill-opacity="0.2"/>
<path d="M233.613 109.565L236.528 120.356L247.355 123.261L236.528 126.166L233.613 136.957L230.698 126.166L219.871 123.261L230.698 120.356L233.613 109.565Z" fill="#173F84" fill-opacity="0.2"/>
<path d="M273.173 120.356L270.258 109.565L267.343 120.356L256.516 123.261L267.343 126.166L270.258 136.957L273.173 126.166L284 123.261L273.173 120.356Z" fill="#173F84" fill-opacity="0.2"/>
<path d="M13.7419 146.087L16.657 156.877L27.4839 159.783L16.657 162.688L13.7419 173.478L10.8268 162.688L0 159.783L10.8268 156.877L13.7419 146.087Z" fill="#173F84" fill-opacity="0.2"/>
<path d="M53.3022 156.877L50.3871 146.087L47.472 156.877L36.6452 159.783L47.472 162.688L50.3871 173.478L53.3022 162.688L64.129 159.783L53.3022 156.877Z" fill="#173F84" fill-opacity="0.2"/>
<path d="M87.0323 146.087L89.9474 156.877L100.774 159.783L89.9474 162.688L87.0323 173.478L84.1172 162.688L73.2903 159.783L84.1172 156.877L87.0323 146.087Z" fill="#173F84" fill-opacity="0.2"/>
<path d="M126.593 156.877L123.677 146.087L120.762 156.877L109.935 159.783L120.762 162.688L123.677 173.478L126.593 162.688L137.419 159.783L126.593 156.877Z" fill="#173F84" fill-opacity="0.2"/>
<path d="M160.323 146.087L163.238 156.877L174.065 159.783L163.238 162.688L160.323 173.478L157.407 162.688L146.581 159.783L157.407 156.877L160.323 146.087Z" fill="#173F84" fill-opacity="0.2"/>
<path d="M199.883 156.877L196.968 146.087L194.053 156.877L183.226 159.783L194.053 162.688L196.968 173.478L199.883 162.688L210.71 159.783L199.883 156.877Z" fill="#173F84" fill-opacity="0.2"/>
<path d="M233.613 146.087L236.528 156.877L247.355 159.783L236.528 162.688L233.613 173.478L230.698 162.688L219.871 159.783L230.698 156.877L233.613 146.087Z" fill="#173F84" fill-opacity="0.2"/>
<path d="M273.173 156.877L270.258 146.087L267.343 156.877L256.516 159.783L267.343 162.688L270.258 173.478L273.173 162.688L284 159.783L273.173 156.877Z" fill="#173F84" fill-opacity="0.2"/>
<path d="M13.7419 182.609L16.657 193.399L27.4839 196.304L16.657 199.21L13.7419 210L10.8268 199.21L0 196.304L10.8268 193.399L13.7419 182.609Z" fill="#173F84" fill-opacity="0.2"/>
<path d="M53.3022 193.399L50.3871 182.609L47.472 193.399L36.6452 196.304L47.472 199.21L50.3871 210L53.3022 199.21L64.129 196.304L53.3022 193.399Z" fill="#173F84" fill-opacity="0.2"/>
<path d="M87.0323 182.609L89.9474 193.399L100.774 196.304L89.9474 199.21L87.0323 210L84.1172 199.21L73.2903 196.304L84.1172 193.399L87.0323 182.609Z" fill="#173F84" fill-opacity="0.2"/>
<path d="M126.593 193.399L123.677 182.609L120.762 193.399L109.935 196.304L120.762 199.21L123.677 210L126.593 199.21L137.419 196.304L126.593 193.399Z" fill="#173F84" fill-opacity="0.2"/>
<path d="M160.323 182.609L163.238 193.399L174.065 196.304L163.238 199.21L160.323 210L157.407 199.21L146.581 196.304L157.407 193.399L160.323 182.609Z" fill="#173F84" fill-opacity="0.2"/>
<path d="M199.883 193.399L196.968 182.609L194.053 193.399L183.226 196.304L194.053 199.21L196.968 210L199.883 199.21L210.71 196.304L199.883 193.399Z" fill="#173F84" fill-opacity="0.2"/>
<path d="M233.613 182.609L236.528 193.399L247.355 196.304L236.528 199.21L233.613 210L230.698 199.21L219.871 196.304L230.698 193.399L233.613 182.609Z" fill="#173F84" fill-opacity="0.2"/>
<path d="M273.173 193.399L270.258 182.609L267.343 193.399L256.516 196.304L267.343 199.21L270.258 210L273.173 199.21L284 196.304L273.173 193.399Z" fill="#173F84" fill-opacity="0.2"/>
</svg>
