<svg width="296" height="284" viewBox="0 0 296 284" fill="none" xmlns="http://www.w3.org/2000/svg">
<path d="M-64.5365 14.5927L-68.4677 0L-72.399 14.5927L-87 18.5217L-72.399 22.4508L-68.4677 37.0435L-64.5365 22.4508L-49.9355 18.5217L-64.5365 14.5927Z" fill="#E3F0FF"/>
<path d="M-64.5365 14.5927L-68.4677 0L-72.399 14.5927L-87 18.5217L-72.399 22.4508L-68.4677 37.0435L-64.5365 22.4508L-49.9355 18.5217L-64.5365 14.5927Z" fill="#E3F0FF"/>
<path d="M-15.1171 14.5927L-19.0484 0L-22.9797 14.5927L-37.5806 18.5217L-22.9797 22.4508L-19.0484 37.0435L-15.1171 22.4508L-0.516129 18.5217L-15.1171 14.5927Z" fill="#E3F0FF"/>
<path d="M-15.1171 14.5927L-19.0484 0L-22.9797 14.5927L-37.5806 18.5217L-22.9797 22.4508L-19.0484 37.0435L-15.1171 22.4508L-0.516129 18.5217L-15.1171 14.5927Z" fill="#E3F0FF"/>
<path d="M30.371 0L34.3022 14.5927L48.9032 18.5217L34.3022 22.4508L30.371 37.0435L26.4397 22.4508L11.8387 18.5217L26.4397 14.5927L30.371 0Z" fill="#E3F0FF"/>
<path d="M30.371 0L34.3022 14.5927L48.9032 18.5217L34.3022 22.4508L30.371 37.0435L26.4397 22.4508L11.8387 18.5217L26.4397 14.5927L30.371 0Z" fill="#E3F0FF"/>
<path d="M83.7216 14.5927L79.7903 0L75.859 14.5927L61.2581 18.5217L75.859 22.4508L79.7903 37.0435L83.7216 22.4508L98.3226 18.5217L83.7216 14.5927Z" fill="#E3F0FF"/>
<path d="M83.7216 14.5927L79.7903 0L75.859 14.5927L61.2581 18.5217L75.859 22.4508L79.7903 37.0435L83.7216 22.4508L98.3226 18.5217L83.7216 14.5927Z" fill="#E3F0FF"/>
<path d="M129.21 0L133.141 14.5927L147.742 18.5217L133.141 22.4508L129.21 37.0435L125.278 22.4508L110.677 18.5217L125.278 14.5927L129.21 0Z" fill="#E3F0FF"/>
<path d="M129.21 0L133.141 14.5927L147.742 18.5217L133.141 22.4508L129.21 37.0435L125.278 22.4508L110.677 18.5217L125.278 14.5927L129.21 0Z" fill="#E3F0FF"/>
<path d="M182.56 14.5927L178.629 0L174.698 14.5927L160.097 18.5217L174.698 22.4508L178.629 37.0435L182.56 22.4508L197.161 18.5217L182.56 14.5927Z" fill="#E3F0FF"/>
<path d="M182.56 14.5927L178.629 0L174.698 14.5927L160.097 18.5217L174.698 22.4508L178.629 37.0435L182.56 22.4508L197.161 18.5217L182.56 14.5927Z" fill="#E3F0FF"/>
<path d="M228.048 0L231.98 14.5927L246.581 18.5217L231.98 22.4508L228.048 37.0435L224.117 22.4508L209.516 18.5217L224.117 14.5927L228.048 0Z" fill="#E3F0FF"/>
<path d="M228.048 0L231.98 14.5927L246.581 18.5217L231.98 22.4508L228.048 37.0435L224.117 22.4508L209.516 18.5217L224.117 14.5927L228.048 0Z" fill="#E3F0FF"/>
<path d="M281.399 14.5927L277.468 0L273.536 14.5927L258.935 18.5217L273.536 22.4508L277.468 37.0435L281.399 22.4508L296 18.5217L281.399 14.5927Z" fill="#E3F0FF"/>
<path d="M281.399 14.5927L277.468 0L273.536 14.5927L258.935 18.5217L273.536 22.4508L277.468 37.0435L281.399 22.4508L296 18.5217L281.399 14.5927Z" fill="#E3F0FF"/>
<path d="M-68.4677 49.3913L-64.5365 63.984L-49.9355 67.913L-64.5365 71.8421L-68.4677 86.4348L-72.399 71.8421L-87 67.913L-72.399 63.984L-68.4677 49.3913Z" fill="#E3F0FF"/>
<path d="M-68.4677 49.3913L-64.5365 63.984L-49.9355 67.913L-64.5365 71.8421L-68.4677 86.4348L-72.399 71.8421L-87 67.913L-72.399 63.984L-68.4677 49.3913Z" fill="#E3F0FF"/>
<path d="M-15.1171 63.984L-19.0484 49.3913L-22.9797 63.984L-37.5806 67.913L-22.9797 71.8421L-19.0484 86.4348L-15.1171 71.8421L-0.516129 67.913L-15.1171 63.984Z" fill="#E3F0FF"/>
<path d="M-15.1171 63.984L-19.0484 49.3913L-22.9797 63.984L-37.5806 67.913L-22.9797 71.8421L-19.0484 86.4348L-15.1171 71.8421L-0.516129 67.913L-15.1171 63.984Z" fill="#E3F0FF"/>
<path d="M30.371 49.3913L34.3022 63.984L48.9032 67.913L34.3022 71.8421L30.371 86.4348L26.4397 71.8421L11.8387 67.913L26.4397 63.984L30.371 49.3913Z" fill="#E3F0FF"/>
<path d="M30.371 49.3913L34.3022 63.984L48.9032 67.913L34.3022 71.8421L30.371 86.4348L26.4397 71.8421L11.8387 67.913L26.4397 63.984L30.371 49.3913Z" fill="#E3F0FF"/>
<path d="M83.7216 63.984L79.7903 49.3913L75.859 63.984L61.2581 67.913L75.859 71.8421L79.7903 86.4348L83.7216 71.8421L98.3226 67.913L83.7216 63.984Z" fill="#E3F0FF"/>
<path d="M83.7216 63.984L79.7903 49.3913L75.859 63.984L61.2581 67.913L75.859 71.8421L79.7903 86.4348L83.7216 71.8421L98.3226 67.913L83.7216 63.984Z" fill="#E3F0FF"/>
<path d="M129.21 49.3913L133.141 63.984L147.742 67.913L133.141 71.8421L129.21 86.4348L125.278 71.8421L110.677 67.913L125.278 63.984L129.21 49.3913Z" fill="#E3F0FF"/>
<path d="M129.21 49.3913L133.141 63.984L147.742 67.913L133.141 71.8421L129.21 86.4348L125.278 71.8421L110.677 67.913L125.278 63.984L129.21 49.3913Z" fill="#E3F0FF"/>
<path d="M182.56 63.984L178.629 49.3913L174.698 63.984L160.097 67.913L174.698 71.8421L178.629 86.4348L182.56 71.8421L197.161 67.913L182.56 63.984Z" fill="#E3F0FF"/>
<path d="M182.56 63.984L178.629 49.3913L174.698 63.984L160.097 67.913L174.698 71.8421L178.629 86.4348L182.56 71.8421L197.161 67.913L182.56 63.984Z" fill="#E3F0FF"/>
<path d="M228.048 49.3913L231.98 63.984L246.581 67.913L231.98 71.8421L228.048 86.4348L224.117 71.8421L209.516 67.913L224.117 63.984L228.048 49.3913Z" fill="#E3F0FF"/>
<path d="M228.048 49.3913L231.98 63.984L246.581 67.913L231.98 71.8421L228.048 86.4348L224.117 71.8421L209.516 67.913L224.117 63.984L228.048 49.3913Z" fill="#E3F0FF"/>
<path d="M281.399 63.984L277.468 49.3913L273.536 63.984L258.935 67.913L273.536 71.8421L277.468 86.4348L281.399 71.8421L296 67.913L281.399 63.984Z" fill="#E3F0FF"/>
<path d="M281.399 63.984L277.468 49.3913L273.536 63.984L258.935 67.913L273.536 71.8421L277.468 86.4348L281.399 71.8421L296 67.913L281.399 63.984Z" fill="#E3F0FF"/>
<path d="M-68.4677 98.7826L-64.5365 113.375L-49.9355 117.304L-64.5365 121.233L-68.4677 135.826L-72.399 121.233L-87 117.304L-72.399 113.375L-68.4677 98.7826Z" fill="#E3F0FF"/>
<path d="M-68.4677 98.7826L-64.5365 113.375L-49.9355 117.304L-64.5365 121.233L-68.4677 135.826L-72.399 121.233L-87 117.304L-72.399 113.375L-68.4677 98.7826Z" fill="#E3F0FF"/>
<path d="M-15.1171 113.375L-19.0484 98.7826L-22.9797 113.375L-37.5806 117.304L-22.9797 121.233L-19.0484 135.826L-15.1171 121.233L-0.516129 117.304L-15.1171 113.375Z" fill="#E3F0FF"/>
<path d="M-15.1171 113.375L-19.0484 98.7826L-22.9797 113.375L-37.5806 117.304L-22.9797 121.233L-19.0484 135.826L-15.1171 121.233L-0.516129 117.304L-15.1171 113.375Z" fill="#E3F0FF"/>
<path d="M30.371 98.7826L34.3022 113.375L48.9032 117.304L34.3022 121.233L30.371 135.826L26.4397 121.233L11.8387 117.304L26.4397 113.375L30.371 98.7826Z" fill="#E3F0FF"/>
<path d="M30.371 98.7826L34.3022 113.375L48.9032 117.304L34.3022 121.233L30.371 135.826L26.4397 121.233L11.8387 117.304L26.4397 113.375L30.371 98.7826Z" fill="#E3F0FF"/>
<path d="M83.7216 113.375L79.7903 98.7826L75.859 113.375L61.2581 117.304L75.859 121.233L79.7903 135.826L83.7216 121.233L98.3226 117.304L83.7216 113.375Z" fill="#E3F0FF"/>
<path d="M83.7216 113.375L79.7903 98.7826L75.859 113.375L61.2581 117.304L75.859 121.233L79.7903 135.826L83.7216 121.233L98.3226 117.304L83.7216 113.375Z" fill="#E3F0FF"/>
<path d="M129.21 98.7826L133.141 113.375L147.742 117.304L133.141 121.233L129.21 135.826L125.278 121.233L110.677 117.304L125.278 113.375L129.21 98.7826Z" fill="#E3F0FF"/>
<path d="M129.21 98.7826L133.141 113.375L147.742 117.304L133.141 121.233L129.21 135.826L125.278 121.233L110.677 117.304L125.278 113.375L129.21 98.7826Z" fill="#E3F0FF"/>
<path d="M182.56 113.375L178.629 98.7826L174.698 113.375L160.097 117.304L174.698 121.233L178.629 135.826L182.56 121.233L197.161 117.304L182.56 113.375Z" fill="#E3F0FF"/>
<path d="M182.56 113.375L178.629 98.7826L174.698 113.375L160.097 117.304L174.698 121.233L178.629 135.826L182.56 121.233L197.161 117.304L182.56 113.375Z" fill="#E3F0FF"/>
<path d="M228.048 98.7826L231.98 113.375L246.581 117.304L231.98 121.233L228.048 135.826L224.117 121.233L209.516 117.304L224.117 113.375L228.048 98.7826Z" fill="#E3F0FF"/>
<path d="M228.048 98.7826L231.98 113.375L246.581 117.304L231.98 121.233L228.048 135.826L224.117 121.233L209.516 117.304L224.117 113.375L228.048 98.7826Z" fill="#E3F0FF"/>
<path d="M281.399 113.375L277.468 98.7826L273.536 113.375L258.935 117.304L273.536 121.233L277.468 135.826L281.399 121.233L296 117.304L281.399 113.375Z" fill="#E3F0FF"/>
<path d="M281.399 113.375L277.468 98.7826L273.536 113.375L258.935 117.304L273.536 121.233L277.468 135.826L281.399 121.233L296 117.304L281.399 113.375Z" fill="#E3F0FF"/>
<path d="M-68.4677 148.174L-64.5365 162.767L-49.9355 166.696L-64.5365 170.625L-68.4677 185.217L-72.399 170.625L-87 166.696L-72.399 162.767L-68.4677 148.174Z" fill="#E3F0FF"/>
<path d="M-68.4677 148.174L-64.5365 162.767L-49.9355 166.696L-64.5365 170.625L-68.4677 185.217L-72.399 170.625L-87 166.696L-72.399 162.767L-68.4677 148.174Z" fill="#E3F0FF"/>
<path d="M-15.1171 162.767L-19.0484 148.174L-22.9797 162.767L-37.5806 166.696L-22.9797 170.625L-19.0484 185.217L-15.1171 170.625L-0.516129 166.696L-15.1171 162.767Z" fill="#E3F0FF"/>
<path d="M-15.1171 162.767L-19.0484 148.174L-22.9797 162.767L-37.5806 166.696L-22.9797 170.625L-19.0484 185.217L-15.1171 170.625L-0.516129 166.696L-15.1171 162.767Z" fill="#E3F0FF"/>
<path d="M30.371 148.174L34.3022 162.767L48.9032 166.696L34.3022 170.625L30.371 185.217L26.4397 170.625L11.8387 166.696L26.4397 162.767L30.371 148.174Z" fill="#E3F0FF"/>
<path d="M30.371 148.174L34.3022 162.767L48.9032 166.696L34.3022 170.625L30.371 185.217L26.4397 170.625L11.8387 166.696L26.4397 162.767L30.371 148.174Z" fill="#E3F0FF"/>
<path d="M83.7216 162.767L79.7903 148.174L75.859 162.767L61.2581 166.696L75.859 170.625L79.7903 185.217L83.7216 170.625L98.3226 166.696L83.7216 162.767Z" fill="#E3F0FF"/>
<path d="M83.7216 162.767L79.7903 148.174L75.859 162.767L61.2581 166.696L75.859 170.625L79.7903 185.217L83.7216 170.625L98.3226 166.696L83.7216 162.767Z" fill="#E3F0FF"/>
<path d="M129.21 148.174L133.141 162.767L147.742 166.696L133.141 170.625L129.21 185.217L125.278 170.625L110.677 166.696L125.278 162.767L129.21 148.174Z" fill="#E3F0FF"/>
<path d="M129.21 148.174L133.141 162.767L147.742 166.696L133.141 170.625L129.21 185.217L125.278 170.625L110.677 166.696L125.278 162.767L129.21 148.174Z" fill="#E3F0FF"/>
<path d="M182.56 162.767L178.629 148.174L174.698 162.767L160.097 166.696L174.698 170.625L178.629 185.217L182.56 170.625L197.161 166.696L182.56 162.767Z" fill="#E3F0FF"/>
<path d="M182.56 162.767L178.629 148.174L174.698 162.767L160.097 166.696L174.698 170.625L178.629 185.217L182.56 170.625L197.161 166.696L182.56 162.767Z" fill="#E3F0FF"/>
<path d="M228.048 148.174L231.98 162.767L246.581 166.696L231.98 170.625L228.048 185.217L224.117 170.625L209.516 166.696L224.117 162.767L228.048 148.174Z" fill="#E3F0FF"/>
<path d="M228.048 148.174L231.98 162.767L246.581 166.696L231.98 170.625L228.048 185.217L224.117 170.625L209.516 166.696L224.117 162.767L228.048 148.174Z" fill="#E3F0FF"/>
<path d="M281.399 162.767L277.468 148.174L273.536 162.767L258.935 166.696L273.536 170.625L277.468 185.217L281.399 170.625L296 166.696L281.399 162.767Z" fill="#E3F0FF"/>
<path d="M281.399 162.767L277.468 148.174L273.536 162.767L258.935 166.696L273.536 170.625L277.468 185.217L281.399 170.625L296 166.696L281.399 162.767Z" fill="#E3F0FF"/>
<path d="M-68.4677 197.565L-64.5365 212.158L-49.9355 216.087L-64.5365 220.016L-68.4677 234.609L-72.399 220.016L-87 216.087L-72.399 212.158L-68.4677 197.565Z" fill="#E3F0FF"/>
<path d="M-68.4677 197.565L-64.5365 212.158L-49.9355 216.087L-64.5365 220.016L-68.4677 234.609L-72.399 220.016L-87 216.087L-72.399 212.158L-68.4677 197.565Z" fill="#E3F0FF"/>
<path d="M-15.1171 212.158L-19.0484 197.565L-22.9797 212.158L-37.5806 216.087L-22.9797 220.016L-19.0484 234.609L-15.1171 220.016L-0.516129 216.087L-15.1171 212.158Z" fill="#E3F0FF"/>
<path d="M-15.1171 212.158L-19.0484 197.565L-22.9797 212.158L-37.5806 216.087L-22.9797 220.016L-19.0484 234.609L-15.1171 220.016L-0.516129 216.087L-15.1171 212.158Z" fill="#E3F0FF"/>
<path d="M30.371 197.565L34.3022 212.158L48.9032 216.087L34.3022 220.016L30.371 234.609L26.4397 220.016L11.8387 216.087L26.4397 212.158L30.371 197.565Z" fill="#E3F0FF"/>
<path d="M30.371 197.565L34.3022 212.158L48.9032 216.087L34.3022 220.016L30.371 234.609L26.4397 220.016L11.8387 216.087L26.4397 212.158L30.371 197.565Z" fill="#E3F0FF"/>
<path d="M83.7216 212.158L79.7903 197.565L75.859 212.158L61.2581 216.087L75.859 220.016L79.7903 234.609L83.7216 220.016L98.3226 216.087L83.7216 212.158Z" fill="#E3F0FF"/>
<path d="M83.7216 212.158L79.7903 197.565L75.859 212.158L61.2581 216.087L75.859 220.016L79.7903 234.609L83.7216 220.016L98.3226 216.087L83.7216 212.158Z" fill="#E3F0FF"/>
<path d="M129.21 197.565L133.141 212.158L147.742 216.087L133.141 220.016L129.21 234.609L125.278 220.016L110.677 216.087L125.278 212.158L129.21 197.565Z" fill="#E3F0FF"/>
<path d="M129.21 197.565L133.141 212.158L147.742 216.087L133.141 220.016L129.21 234.609L125.278 220.016L110.677 216.087L125.278 212.158L129.21 197.565Z" fill="#E3F0FF"/>
<path d="M182.56 212.158L178.629 197.565L174.698 212.158L160.097 216.087L174.698 220.016L178.629 234.609L182.56 220.016L197.161 216.087L182.56 212.158Z" fill="#E3F0FF"/>
<path d="M182.56 212.158L178.629 197.565L174.698 212.158L160.097 216.087L174.698 220.016L178.629 234.609L182.56 220.016L197.161 216.087L182.56 212.158Z" fill="#E3F0FF"/>
<path d="M228.048 197.565L231.98 212.158L246.581 216.087L231.98 220.016L228.048 234.609L224.117 220.016L209.516 216.087L224.117 212.158L228.048 197.565Z" fill="#E3F0FF"/>
<path d="M228.048 197.565L231.98 212.158L246.581 216.087L231.98 220.016L228.048 234.609L224.117 220.016L209.516 216.087L224.117 212.158L228.048 197.565Z" fill="#E3F0FF"/>
<path d="M281.399 212.158L277.468 197.565L273.536 212.158L258.935 216.087L273.536 220.016L277.468 234.609L281.399 220.016L296 216.087L281.399 212.158Z" fill="#E3F0FF"/>
<path d="M281.399 212.158L277.468 197.565L273.536 212.158L258.935 216.087L273.536 220.016L277.468 234.609L281.399 220.016L296 216.087L281.399 212.158Z" fill="#E3F0FF"/>
<path d="M-68.4677 246.957L-64.5365 261.549L-49.9355 265.478L-64.5365 269.407L-68.4677 284L-72.399 269.407L-87 265.478L-72.399 261.549L-68.4677 246.957Z" fill="#E3F0FF"/>
<path d="M-68.4677 246.957L-64.5365 261.549L-49.9355 265.478L-64.5365 269.407L-68.4677 284L-72.399 269.407L-87 265.478L-72.399 261.549L-68.4677 246.957Z" fill="#E3F0FF"/>
<path d="M-15.1171 261.549L-19.0484 246.957L-22.9797 261.549L-37.5806 265.478L-22.9797 269.407L-19.0484 284L-15.1171 269.407L-0.516129 265.478L-15.1171 261.549Z" fill="#E3F0FF"/>
<path d="M-15.1171 261.549L-19.0484 246.957L-22.9797 261.549L-37.5806 265.478L-22.9797 269.407L-19.0484 284L-15.1171 269.407L-0.516129 265.478L-15.1171 261.549Z" fill="#E3F0FF"/>
<path d="M30.371 246.957L34.3022 261.549L48.9032 265.478L34.3022 269.407L30.371 284L26.4397 269.407L11.8387 265.478L26.4397 261.549L30.371 246.957Z" fill="#E3F0FF"/>
<path d="M30.371 246.957L34.3022 261.549L48.9032 265.478L34.3022 269.407L30.371 284L26.4397 269.407L11.8387 265.478L26.4397 261.549L30.371 246.957Z" fill="#E3F0FF"/>
<path d="M83.7216 261.549L79.7903 246.957L75.859 261.549L61.2581 265.478L75.859 269.407L79.7903 284L83.7216 269.407L98.3226 265.478L83.7216 261.549Z" fill="#E3F0FF"/>
<path d="M83.7216 261.549L79.7903 246.957L75.859 261.549L61.2581 265.478L75.859 269.407L79.7903 284L83.7216 269.407L98.3226 265.478L83.7216 261.549Z" fill="#E3F0FF"/>
<path d="M129.21 246.957L133.141 261.549L147.742 265.478L133.141 269.407L129.21 284L125.278 269.407L110.677 265.478L125.278 261.549L129.21 246.957Z" fill="#E3F0FF"/>
<path d="M129.21 246.957L133.141 261.549L147.742 265.478L133.141 269.407L129.21 284L125.278 269.407L110.677 265.478L125.278 261.549L129.21 246.957Z" fill="#E3F0FF"/>
<path d="M182.56 261.549L178.629 246.957L174.698 261.549L160.097 265.478L174.698 269.407L178.629 284L182.56 269.407L197.161 265.478L182.56 261.549Z" fill="#E3F0FF"/>
<path d="M182.56 261.549L178.629 246.957L174.698 261.549L160.097 265.478L174.698 269.407L178.629 284L182.56 269.407L197.161 265.478L182.56 261.549Z" fill="#E3F0FF"/>
<path d="M228.048 246.957L231.98 261.549L246.581 265.478L231.98 269.407L228.048 284L224.117 269.407L209.516 265.478L224.117 261.549L228.048 246.957Z" fill="#E3F0FF"/>
<path d="M228.048 246.957L231.98 261.549L246.581 265.478L231.98 269.407L228.048 284L224.117 269.407L209.516 265.478L224.117 261.549L228.048 246.957Z" fill="#E3F0FF"/>
<path d="M281.399 261.549L277.468 246.957L273.536 261.549L258.935 265.478L273.536 269.407L277.468 284L281.399 269.407L296 265.478L281.399 261.549Z" fill="#E3F0FF"/>
<path d="M281.399 261.549L277.468 246.957L273.536 261.549L258.935 265.478L273.536 269.407L277.468 284L281.399 269.407L296 265.478L281.399 261.549Z" fill="#E3F0FF"/>
</svg>
