<svg width="499" height="371" viewBox="0 0 499 371" fill="none" xmlns="http://www.w3.org/2000/svg">
<path d="M29.2671 19.063L24.1452 0L19.0232 19.063L0 24.1957L19.0232 29.3283L24.1452 48.3913L29.2671 29.3283L48.2903 24.1957L29.2671 19.063Z" fill="#FF7600" fill-opacity="0.53"/>
<path d="M93.6542 19.063L88.5323 0L83.4103 19.063L64.3871 24.1957L83.4103 29.3283L88.5323 48.3913L93.6542 29.3283L112.677 24.1957L93.6542 19.063Z" fill="#FF7600" fill-opacity="0.53"/>
<path d="M152.919 0L158.041 19.063L177.065 24.1957L158.041 29.3283L152.919 48.3913L147.797 29.3283L128.774 24.1957L147.797 19.063L152.919 0Z" fill="#FF7600" fill-opacity="0.53"/>
<path d="M222.428 19.063L217.306 0L212.184 19.063L193.161 24.1957L212.184 29.3283L217.306 48.3913L222.428 29.3283L241.452 24.1957L222.428 19.063Z" fill="#FF7600" fill-opacity="0.53"/>
<path d="M281.694 0L286.816 19.063L305.839 24.1957L286.816 29.3283L281.694 48.3913L276.572 29.3283L257.548 24.1957L276.572 19.063L281.694 0Z" fill="#FF7600" fill-opacity="0.53"/>
<path d="M351.203 19.063L346.081 0L340.959 19.063L321.935 24.1957L340.959 29.3283L346.081 48.3913L351.203 29.3283L370.226 24.1957L351.203 19.063Z" fill="#FF7600" fill-opacity="0.53"/>
<path d="M410.468 0L415.59 19.063L434.613 24.1957L415.59 29.3283L410.468 48.3913L405.346 29.3283L386.323 24.1957L405.346 19.063L410.468 0Z" fill="#FF7600" fill-opacity="0.53"/>
<path d="M479.977 19.063L474.855 0L469.733 19.063L450.71 24.1957L469.733 29.3283L474.855 48.3913L479.977 29.3283L499 24.1957L479.977 19.063Z" fill="#FF7600" fill-opacity="0.53"/>
<path d="M24.1452 64.5217L29.2671 83.5847L48.2903 88.7174L29.2671 93.8501L24.1452 112.913L19.0232 93.8501L0 88.7174L19.0232 83.5847L24.1452 64.5217Z" fill="#FF7600" fill-opacity="0.53"/>
<path d="M93.6542 83.5847L88.5323 64.5217L83.4103 83.5847L64.3871 88.7174L83.4103 93.8501L88.5323 112.913L93.6542 93.8501L112.677 88.7174L93.6542 83.5847Z" fill="#FF7600" fill-opacity="0.53"/>
<path d="M152.919 64.5217L158.041 83.5847L177.065 88.7174L158.041 93.8501L152.919 112.913L147.797 93.8501L128.774 88.7174L147.797 83.5847L152.919 64.5217Z" fill="#FF7600" fill-opacity="0.53"/>
<path d="M222.428 83.5847L217.306 64.5217L212.184 83.5847L193.161 88.7174L212.184 93.8501L217.306 112.913L222.428 93.8501L241.452 88.7174L222.428 83.5847Z" fill="#FF7600" fill-opacity="0.53"/>
<path d="M281.694 64.5217L286.816 83.5847L305.839 88.7174L286.816 93.8501L281.694 112.913L276.572 93.8501L257.548 88.7174L276.572 83.5847L281.694 64.5217Z" fill="#FF7600" fill-opacity="0.53"/>
<path d="M351.203 83.5847L346.081 64.5217L340.959 83.5847L321.935 88.7174L340.959 93.8501L346.081 112.913L351.203 93.8501L370.226 88.7174L351.203 83.5847Z" fill="#FF7600" fill-opacity="0.53"/>
<path d="M410.468 64.5217L415.59 83.5847L434.613 88.7174L415.59 93.8501L410.468 112.913L405.346 93.8501L386.323 88.7174L405.346 83.5847L410.468 64.5217Z" fill="#FF7600" fill-opacity="0.53"/>
<path d="M479.977 83.5847L474.855 64.5217L469.733 83.5847L450.71 88.7174L469.733 93.8501L474.855 112.913L479.977 93.8501L499 88.7174L479.977 83.5847Z" fill="#FF7600" fill-opacity="0.53"/>
<path d="M24.1452 129.043L29.2671 148.106L48.2903 153.239L29.2671 158.372L24.1452 177.435L19.0232 158.372L0 153.239L19.0232 148.106L24.1452 129.043Z" fill="#FF7600" fill-opacity="0.53"/>
<path d="M93.6542 148.106L88.5323 129.043L83.4103 148.106L64.3871 153.239L83.4103 158.372L88.5323 177.435L93.6542 158.372L112.677 153.239L93.6542 148.106Z" fill="#FF7600" fill-opacity="0.53"/>
<path d="M152.919 129.043L158.041 148.106L177.065 153.239L158.041 158.372L152.919 177.435L147.797 158.372L128.774 153.239L147.797 148.106L152.919 129.043Z" fill="#FF7600" fill-opacity="0.53"/>
<path d="M222.428 148.106L217.306 129.043L212.184 148.106L193.161 153.239L212.184 158.372L217.306 177.435L222.428 158.372L241.452 153.239L222.428 148.106Z" fill="#FF7600" fill-opacity="0.53"/>
<path d="M281.694 129.043L286.816 148.106L305.839 153.239L286.816 158.372L281.694 177.435L276.572 158.372L257.548 153.239L276.572 148.106L281.694 129.043Z" fill="#FF7600" fill-opacity="0.53"/>
<path d="M351.203 148.106L346.081 129.043L340.959 148.106L321.935 153.239L340.959 158.372L346.081 177.435L351.203 158.372L370.226 153.239L351.203 148.106Z" fill="#FF7600" fill-opacity="0.53"/>
<path d="M410.468 129.043L415.59 148.106L434.613 153.239L415.59 158.372L410.468 177.435L405.346 158.372L386.323 153.239L405.346 148.106L410.468 129.043Z" fill="#FF7600" fill-opacity="0.53"/>
<path d="M479.977 148.106L474.855 129.043L469.733 148.106L450.71 153.239L469.733 158.372L474.855 177.435L479.977 158.372L499 153.239L479.977 148.106Z" fill="#FF7600" fill-opacity="0.53"/>
<path d="M24.1452 193.565L29.2671 212.628L48.2903 217.761L29.2671 222.894L24.1452 241.957L19.0232 222.894L0 217.761L19.0232 212.628L24.1452 193.565Z" fill="#FF7600" fill-opacity="0.53"/>
<path d="M93.6542 212.628L88.5323 193.565L83.4103 212.628L64.3871 217.761L83.4103 222.894L88.5323 241.957L93.6542 222.894L112.677 217.761L93.6542 212.628Z" fill="#FF7600" fill-opacity="0.53"/>
<path d="M152.919 193.565L158.041 212.628L177.065 217.761L158.041 222.894L152.919 241.957L147.797 222.894L128.774 217.761L147.797 212.628L152.919 193.565Z" fill="#FF7600" fill-opacity="0.53"/>
<path d="M222.428 212.628L217.306 193.565L212.184 212.628L193.161 217.761L212.184 222.894L217.306 241.957L222.428 222.894L241.452 217.761L222.428 212.628Z" fill="#FF7600" fill-opacity="0.53"/>
<path d="M281.694 193.565L286.816 212.628L305.839 217.761L286.816 222.894L281.694 241.957L276.572 222.894L257.548 217.761L276.572 212.628L281.694 193.565Z" fill="#FF7600" fill-opacity="0.53"/>
<path d="M351.203 212.628L346.081 193.565L340.959 212.628L321.935 217.761L340.959 222.894L346.081 241.957L351.203 222.894L370.226 217.761L351.203 212.628Z" fill="#FF7600" fill-opacity="0.53"/>
<path d="M410.468 193.565L415.59 212.628L434.613 217.761L415.59 222.894L410.468 241.957L405.346 222.894L386.323 217.761L405.346 212.628L410.468 193.565Z" fill="#FF7600" fill-opacity="0.53"/>
<path d="M479.977 212.628L474.855 193.565L469.733 212.628L450.71 217.761L469.733 222.894L474.855 241.957L479.977 222.894L499 217.761L479.977 212.628Z" fill="#FF7600" fill-opacity="0.53"/>
<path d="M24.1452 258.087L29.2671 277.15L48.2903 282.283L29.2671 287.415L24.1452 306.478L19.0232 287.415L0 282.283L19.0232 277.15L24.1452 258.087Z" fill="#FF7600" fill-opacity="0.53"/>
<path d="M93.6542 277.15L88.5323 258.087L83.4103 277.15L64.3871 282.283L83.4103 287.415L88.5323 306.478L93.6542 287.415L112.677 282.283L93.6542 277.15Z" fill="#FF7600" fill-opacity="0.53"/>
<path d="M152.919 258.087L158.041 277.15L177.065 282.283L158.041 287.415L152.919 306.478L147.797 287.415L128.774 282.283L147.797 277.15L152.919 258.087Z" fill="#FF7600" fill-opacity="0.53"/>
<path d="M222.428 277.15L217.306 258.087L212.184 277.15L193.161 282.283L212.184 287.415L217.306 306.478L222.428 287.415L241.452 282.283L222.428 277.15Z" fill="#FF7600" fill-opacity="0.53"/>
<path d="M281.694 258.087L286.816 277.15L305.839 282.283L286.816 287.415L281.694 306.478L276.572 287.415L257.548 282.283L276.572 277.15L281.694 258.087Z" fill="#FF7600" fill-opacity="0.53"/>
<path d="M351.203 277.15L346.081 258.087L340.959 277.15L321.935 282.283L340.959 287.415L346.081 306.478L351.203 287.415L370.226 282.283L351.203 277.15Z" fill="#FF7600" fill-opacity="0.53"/>
<path d="M410.468 258.087L415.59 277.15L434.613 282.283L415.59 287.415L410.468 306.478L405.346 287.415L386.323 282.283L405.346 277.15L410.468 258.087Z" fill="#FF7600" fill-opacity="0.53"/>
<path d="M479.977 277.15L474.855 258.087L469.733 277.15L450.71 282.283L469.733 287.415L474.855 306.478L479.977 287.415L499 282.283L479.977 277.15Z" fill="#FF7600" fill-opacity="0.53"/>
<path d="M24.1452 322.609L29.2671 341.672L48.2903 346.804L29.2671 351.937L24.1452 371L19.0232 351.937L0 346.804L19.0232 341.672L24.1452 322.609Z" fill="#FF7600" fill-opacity="0.53"/>
<path d="M93.6542 341.672L88.5323 322.609L83.4103 341.672L64.3871 346.804L83.4103 351.937L88.5323 371L93.6542 351.937L112.677 346.804L93.6542 341.672Z" fill="#FF7600" fill-opacity="0.53"/>
<path d="M152.919 322.609L158.041 341.672L177.065 346.804L158.041 351.937L152.919 371L147.797 351.937L128.774 346.804L147.797 341.672L152.919 322.609Z" fill="#FF7600" fill-opacity="0.53"/>
<path d="M222.428 341.672L217.306 322.609L212.184 341.672L193.161 346.804L212.184 351.937L217.306 371L222.428 351.937L241.452 346.804L222.428 341.672Z" fill="#FF7600" fill-opacity="0.53"/>
<path d="M281.694 322.609L286.816 341.672L305.839 346.804L286.816 351.937L281.694 371L276.572 351.937L257.548 346.804L276.572 341.672L281.694 322.609Z" fill="#FF7600" fill-opacity="0.53"/>
<path d="M351.203 341.672L346.081 322.609L340.959 341.672L321.935 346.804L340.959 351.937L346.081 371L351.203 351.937L370.226 346.804L351.203 341.672Z" fill="#FF7600" fill-opacity="0.53"/>
<path d="M410.468 322.609L415.59 341.672L434.613 346.804L415.59 351.937L410.468 371L405.346 351.937L386.323 346.804L405.346 341.672L410.468 322.609Z" fill="#FF7600" fill-opacity="0.53"/>
<path d="M479.977 341.672L474.855 322.609L469.733 341.672L450.71 346.804L469.733 351.937L474.855 371L479.977 351.937L499 346.804L479.977 341.672Z" fill="#FF7600" fill-opacity="0.53"/>
</svg>
